PathFileType	4	(X/Y/Z)	T1_P2_NoVision_NoMovement_0_0-723.trc
DataRate	CameraRate	NumFrames	NumMarkers	Units	OrigDataRate	OrigDataStartFrame	OrigNumFrames
60	60	5	27	m	60	0	723
Frame#	Time	RHip			RKnee			RAnkle			RBigToe			RSmallToe			RHeel			LHip			LKnee			LAnkle			LBigToe			LSmallToe			LHeel			Neck			Head			Nose			RShoulder			RElbow			RWrist			RThumb			RIndex			RPinky			LShoulder			LElbow			LWrist			LThumb			LIndex			LPinky		
		X1	Y1	Z1	X2	Y2	Z2	X3	Y3	Z3	X4	Y4	Z4	X5	Y5	Z5	X6	Y6	Z6	X7	Y7	Z7	X8	Y8	Z8	X9	Y9	Z9	X10	Y10	Z10	X11	Y11	Z11	X12	Y12	Z12	X13	Y13	Z13	X14	Y14	Z14	X15	Y15	Z15	X16	Y16	Z16	X17	Y17	Z17	X18	Y18	Z18	X19	Y19	Z19	X20	Y20	Z20	X21	Y21	Z21	X22	Y22	Z22	X23	Y23	Z23	X24	Y24	Z24	X25	Y25	Z25	X26	Y26	Z26	X27	Y27	Z27
1	0.016666666666666666	463.29322037201564	3621.0959968913057	540.5859087857935	852.8700987752544	3684.2556047536154	543.4834913561791	1262.2317364065539	3785.445694324853	626.2542946394773	1322.7924838632912	3611.7717908746786	557.3649825931541	1316.2595803634463	3676.3257558454943	522.1984511783414	1299.5061986181752	3769.135308920579	634.4694599722255	462.72474224138233	3504.360506017633	732.9802973290475	883.3097772199359	3552.2299534641124	751.7419045651818	1237.1354711279555	3603.087742188026	733.5679883555566	1318.0584334597465	3514.486919252285	675.9275671462019	1278.1039013646946	3456.4766835251635	716.2404568620889	1268.930619902256	3617.3000088750086	717.4080941781148	-108.04454672913435	3533.722390557115	633.3163832214832	-359.4193906748282	3430.2922060241417	573.684655897915	-212.19298270133424	3378.841197661147	531.0018194291963	-35.755835336660795	3646.5716990020455	530.3167183574606	199.70325003884875	3685.9758289399624	443.5640977009529	440.27110505288823	3638.2341308612317	399.2720079276678	574.8156333392609	3541.0786305288034	396.02606149214427	595.4960948748187	3557.53699042618	386.57020120058064	588.3771015252423	3647.5892728988274	388.3827528962698	-21.52347842793004	3477.9510949747705	779.1833449856874	225.60405697027153	3432.0074674363145	832.5024020029182	469.4717847924439	3392.9002187644624	806.2585787953973	570.5028800492353	3391.3495418725975	764.5490931331437	594.8839895414814	3402.497159514567	806.7292929942836	582.5071941041775	3343.0900870531127	810.054176894708
2	0.03333333333333333	468.07611502177286	3623.106064958446	541.7458327017381	864.2245629179981	3691.0269609717843	546.2247683474674	1268.3221241305898	3788.0389467199325	628.472728759552	1323.0259966273309	3611.7801699541324	557.3910213417951	1324.005511317045	3698.2413154431383	526.7898274906482	1298.961721940493	3770.203385741917	635.4006867280356	462.77157246580555	3504.574388656619	733.0314474664467	882.9045680397744	3551.6982486055203	751.2065194199877	1238.0856045215824	3595.0258524508877	730.9730294407321	1325.5244019853726	3533.675864985081	680.9400515475578	1280.511761213602	3451.1962182360357	713.2197383526793	1274.2859801939974	3618.849771157095	718.8617050381558	-108.56799552142374	3533.621600483532	633.3777227476461	-359.39380239867546	3430.4605101043394	573.8736373267892	-216.3069864005092	3377.5680497895232	530.2509307464018	-35.72284959392668	3646.8525888323334	530.4283037503321	199.7904500909628	3687.5373870833373	439.28552845439305	444.9780514433528	3641.6727105277587	399.99287031977076	576.2574593633732	3549.557071414124	398.9257057363268	595.4965525838993	3557.9112110170113	386.5922647269305	588.3220852637684	3647.3417796378903	388.8720083558234	-22.49244499039107	3462.8502882493567	764.8848341280429	225.80443091585673	3432.136659748407	832.616816669179	469.4158220184825	3393.0668234574005	806.2504043171209	569.6052628514193	3374.891973459633	744.0925471808667	591.3218260410011	3390.0202943966838	794.7140730054725	579.0883092268851	3330.5776853393486	797.6685269969372
3	0.05	469.533410253986	3632.318017346519	545.7232711503661	863.8455358145651	3690.618938433497	545.8934555330734	1268.354683153962	3788.268647235855	628.5147201574042	1323.1008276873542	3611.833716974954	557.3219290371399	1330.561601120488	3701.8220449033165	526.9330619474932	1296.6463657213924	3775.937847856374	638.219812885056	463.7213829112213	3510.5328438283236	736.667193411154	883.296878520833	3552.0891962626115	751.4762887328112	1237.608602852401	3605.5267214552787	729.3579407477598	1317.3449457450156	3501.2720960981487	667.604980906608	1284.0619645627346	3459.9392994540094	717.0105248247324	1274.602215426603	3618.625634449409	718.4841314452602	-108.57368056638161	3534.07279556786	633.6490758536834	-363.8767876629517	3426.823964962419	572.0394412934527	-216.46374296450543	3377.514509741895	530.265698429303	-35.76115845462349	3647.1357943452444	530.7021718279635	200.52502518797942	3695.9246712070862	442.5558974697203	440.19220088746107	3638.370941554448	399.27305479528786	571.2175886490818	3545.660388997785	397.91150629314046	595.306939330625	3557.6735280798202	386.45136766618253	584.0410637297672	3653.3625685098195	391.24890471758556	-26.357556912089965	3486.9344023267586	773.3193864930626	225.6111357348683	3431.975523044273	832.5225838728497	469.34786208892615	3393.1189229809524	806.2101143855426	570.1122527467872	3391.294900943515	759.2973217977964	591.2868531862185	3391.086692069295	795.1423460674869	582.6299729035977	3350.172735997438	804.431123958696
4	0.06666666666666667	469.55422378288864	3632.2890312249137	545.7151594172143	864.4899550120781	3691.8307265980297	546.4041362226915	1274.6011763905385	3792.1190401401473	629.2178778101874	1322.9387256603984	3611.483487900557	557.1152970239608	1322.7462497751235	3679.828744544232	521.9097852777837	1297.153222210535	3778.462452564071	633.8998195316284	459.11796773863944	3508.915011245728	735.5594757473544	883.5154918392832	3552.165503187926	751.4682361796785	1239.9167647782626	3600.609610732292	726.611646941115	1318.9948087509536	3517.9837425165238	672.3934260312776	1278.1937740211033	3456.093602543218	715.9424395768132	1274.574555168376	3618.4156909822104	718.3500350008916	-108.7074829211961	3534.0247576577704	633.6056843250982	-365.17376338643805	3445.9768284807988	577.3586477148444	-216.5209112145117	3377.647436573624	530.3660925221684	-35.8001612787785	3647.1452095136215	530.6717830052448	204.89895385015126	3690.19793092939	445.0761178849414	445.01899338525214	3641.84741211126	400.0991469647719	571.2903534002036	3548.620308268444	393.93029119181915	595.259199207905	3557.6869051629983	386.30425873032254	579.4355200194576	3651.7565676155746	390.1320090149184	-26.615597721293163	3466.7813399870925	767.1257510970295	225.7475542574184	3431.966152432799	832.5306065339947	469.40755100728944	3393.083883240415	806.1935028860538	570.1524210648569	3391.353762740893	759.4256271344735	594.8000685962323	3403.099601579596	807.1912667075318	578.9125725588672	3330.6639456265	797.5948022281555
5	0.08333333333333333	469.35359877494545	3632.2878182460513	545.572775707246	864.2472740601277	3691.3804347477558	546.163285878116	1268.4120169973241	3787.953345590812	628.3151115069008	1315.203838736093	3595.945687918594	543.8270122218572	1315.7678987168874	3675.282225761976	520.5271332899039	1299.0666171050734	3770.2375283566885	635.3379938742452	459.01952265168563	3508.9304875151033	735.5049052210765	883.6837652096283	3552.576440961288	751.5724267137813	1245.5298069990845	3602.052880154221	727.9871769057927	1319.0893537386896	3518.487022369016	672.6604573305739	1279.0327446678675	3459.8630229877904	712.2712398347775	1274.695133017087	3618.455800100699	718.2427921913915	-108.77526922547847	3534.0059234921755	633.6147524851356	-363.6544810936904	3426.5410995643365	571.9851288187166	-216.50633040411435	3377.4712665256257	530.3463755656292	-35.803877091700365	3647.1696907786772	530.6462836160196	204.93694562493866	3690.289281849388	445.1290999644034	445.0571713892809	3641.897739992376	400.10475041265664	576.1329882520349	3552.768296053391	394.79146353148604	595.3464263620198	3558.1315037457944	386.37064323128806	579.3174599264198	3653.1256750816456	390.2122427926918	-22.21889038545373	3483.1725705298736	771.2060108489303	225.6157274078412	3431.89901075143	832.4533249440478	469.4322071300559	3393.0704456462076	806.160261657717	573.0340299738932	3387.8144028535708	757.0006072343407	594.8637577803703	3403.0697834690013	807.0282887684696	578.993290346465	3330.701693159816	797.6529396745786
